<mxfile host="Electron" modified="2023-03-28T16:07:35.433Z" agent="5.0 (X11; Linux x86_64) AppleWebKit/537.36 (KHTML, like Gecko) draw.io/20.8.16 Chrome/106.0.5249.199 Electron/21.4.0 Safari/537.36" etag="TFyBMG9rA8r8fkMjTr7d" compressed="false" version="20.8.16" type="device">
  <diagram name="Page-1" id="ChHfrovx2bz5Nk0UMHN0">
    <mxGraphModel dx="2307" dy="1346" grid="1" gridSize="10" guides="1" tooltips="1" connect="1" arrows="1" fold="1" page="1" pageScale="1" pageWidth="850" pageHeight="1100" math="0" shadow="0">
      <root>
        <mxCell id="0" />
        <mxCell id="1" parent="0" />
        <mxCell id="Eea4O15NX0q3AfGc0YIN-9" value="" style="rounded=0;whiteSpace=wrap;html=1;fontSize=25;fillColor=#bac8d3;strokeColor=none;opacity=20;" vertex="1" parent="1">
          <mxGeometry x="1300" y="20" width="130" height="940" as="geometry" />
        </mxCell>
        <mxCell id="Eea4O15NX0q3AfGc0YIN-10" value="" style="rounded=0;whiteSpace=wrap;html=1;fontSize=25;fillColor=#bac8d3;strokeColor=none;opacity=20;" vertex="1" parent="1">
          <mxGeometry x="1160" y="20" width="130" height="940" as="geometry" />
        </mxCell>
        <mxCell id="Eea4O15NX0q3AfGc0YIN-11" value="" style="rounded=0;whiteSpace=wrap;html=1;fontSize=25;fillColor=#bac8d3;strokeColor=none;opacity=20;" vertex="1" parent="1">
          <mxGeometry x="1020" y="20" width="130" height="940" as="geometry" />
        </mxCell>
        <mxCell id="Eea4O15NX0q3AfGc0YIN-12" value="" style="rounded=0;whiteSpace=wrap;html=1;fontSize=25;fillColor=#bac8d3;strokeColor=none;opacity=20;" vertex="1" parent="1">
          <mxGeometry x="880" y="20" width="130" height="940" as="geometry" />
        </mxCell>
        <mxCell id="Eea4O15NX0q3AfGc0YIN-13" value="" style="rounded=0;whiteSpace=wrap;html=1;fontSize=25;fillColor=#bac8d3;strokeColor=none;opacity=20;" vertex="1" parent="1">
          <mxGeometry x="740" y="20" width="130" height="940" as="geometry" />
        </mxCell>
        <mxCell id="Eea4O15NX0q3AfGc0YIN-14" value="" style="rounded=0;whiteSpace=wrap;html=1;fontSize=25;fillColor=#bac8d3;strokeColor=none;opacity=20;" vertex="1" parent="1">
          <mxGeometry x="600" y="20" width="130" height="940" as="geometry" />
        </mxCell>
        <mxCell id="Eea4O15NX0q3AfGc0YIN-15" value="" style="rounded=0;whiteSpace=wrap;html=1;fontSize=25;fillColor=#bac8d3;strokeColor=none;opacity=20;" vertex="1" parent="1">
          <mxGeometry x="460" y="20" width="130" height="940" as="geometry" />
        </mxCell>
        <mxCell id="Eea4O15NX0q3AfGc0YIN-16" value="" style="rounded=0;whiteSpace=wrap;html=1;fontSize=25;fillColor=#bac8d3;strokeColor=none;opacity=20;" vertex="1" parent="1">
          <mxGeometry x="320" y="20" width="130" height="940" as="geometry" />
        </mxCell>
        <mxCell id="Eea4O15NX0q3AfGc0YIN-17" value="" style="rounded=0;whiteSpace=wrap;html=1;fontSize=25;fillColor=#bac8d3;strokeColor=none;opacity=20;" vertex="1" parent="1">
          <mxGeometry x="180" y="20" width="130" height="940" as="geometry" />
        </mxCell>
        <mxCell id="Eea4O15NX0q3AfGc0YIN-18" value="" style="rounded=0;whiteSpace=wrap;html=1;fontSize=25;fillColor=#bac8d3;strokeColor=none;opacity=20;" vertex="1" parent="1">
          <mxGeometry x="40" y="20" width="130" height="940" as="geometry" />
        </mxCell>
        <mxCell id="rNGPlnSFtUfxI-7FSF1a-28" value="Yul" style="shape=step;perimeter=stepPerimeter;whiteSpace=wrap;html=1;fixedSize=1;size=10;fillColor=#AE4132;strokeColor=none;fontSize=25;fontColor=#FFFFFF;fontStyle=1;align=center;rounded=0;" parent="1" vertex="1">
          <mxGeometry x="630" y="360" width="890" height="60" as="geometry" />
        </mxCell>
        <mxCell id="rNGPlnSFtUfxI-7FSF1a-39" value="ETK assembly" style="shape=step;perimeter=stepPerimeter;whiteSpace=wrap;html=1;fixedSize=1;size=10;fillColor=#23445D;strokeColor=none;fontSize=25;fontColor=#FFFFFF;fontStyle=1;align=center;rounded=0;" parent="1" vertex="1">
          <mxGeometry x="1040" y="600" width="480" height="60" as="geometry" />
        </mxCell>
        <mxCell id="rNGPlnSFtUfxI-7FSF1a-45" value="Huff&lt;br style=&quot;font-size: 20px;&quot;&gt;JS" style="shape=step;perimeter=stepPerimeter;whiteSpace=wrap;html=1;fixedSize=1;size=10;fillColor=#12AAB5;strokeColor=none;fontSize=20;fontColor=#FFFFFF;fontStyle=1;align=center;rounded=0;" parent="1" vertex="1">
          <mxGeometry x="860" y="720" width="80" height="60" as="geometry" />
        </mxCell>
        <mxCell id="rNGPlnSFtUfxI-7FSF1a-92" value="2014" style="html=1;shape=mxgraph.infographic.flag;dx=30;dy=20;fillColor=#b1ddf0;strokeColor=#10739e;align=center;verticalAlign=top;fontSize=20;fontStyle=1;shadow=0;spacingTop=5;" parent="1" vertex="1">
          <mxGeometry x="40" y="20" width="130" height="60" as="geometry" />
        </mxCell>
        <mxCell id="rNGPlnSFtUfxI-7FSF1a-93" value="2015" style="html=1;shape=mxgraph.infographic.flag;dx=30;dy=20;fillColor=#fbe7cd;strokeColor=#10739e;align=center;verticalAlign=top;fontSize=20;fontStyle=1;shadow=0;spacingTop=5;" parent="1" vertex="1">
          <mxGeometry x="180" y="20" width="130" height="60" as="geometry" />
        </mxCell>
        <mxCell id="rNGPlnSFtUfxI-7FSF1a-94" value="2016" style="html=1;shape=mxgraph.infographic.flag;dx=30;dy=20;fillColor=#fad9d5;strokeColor=#ae4132;align=center;verticalAlign=top;fontSize=20;fontStyle=1;shadow=0;spacingTop=5;" parent="1" vertex="1">
          <mxGeometry x="320" y="20" width="130" height="60" as="geometry" />
        </mxCell>
        <mxCell id="rNGPlnSFtUfxI-7FSF1a-95" value="2017" style="html=1;shape=mxgraph.infographic.flag;dx=30;dy=20;fillColor=#bac8d3;strokeColor=#23445d;align=center;verticalAlign=top;fontSize=20;fontStyle=1;shadow=0;spacingTop=5;" parent="1" vertex="1">
          <mxGeometry x="460" y="20" width="130" height="60" as="geometry" />
        </mxCell>
        <mxCell id="rNGPlnSFtUfxI-7FSF1a-96" value="2018" style="html=1;shape=mxgraph.infographic.flag;dx=30;dy=20;fillColor=#b0e3e6;strokeColor=#0e8088;align=center;verticalAlign=top;fontSize=20;fontStyle=1;shadow=0;spacingTop=5;" parent="1" vertex="1">
          <mxGeometry x="600" y="20" width="130" height="60" as="geometry" />
        </mxCell>
        <mxCell id="rNGPlnSFtUfxI-7FSF1a-97" value="2019" style="html=1;shape=mxgraph.infographic.flag;dx=30;dy=20;fillColor=#b1ddf0;strokeColor=#10739e;align=center;verticalAlign=top;fontSize=20;fontStyle=1;shadow=0;spacingTop=5;" parent="1" vertex="1">
          <mxGeometry x="740" y="20" width="130" height="60" as="geometry" />
        </mxCell>
        <mxCell id="rNGPlnSFtUfxI-7FSF1a-98" value="2020" style="html=1;shape=mxgraph.infographic.flag;dx=30;dy=20;fillColor=#fad7ac;strokeColor=#b46504;align=center;verticalAlign=top;fontSize=20;fontStyle=1;shadow=0;spacingTop=5;" parent="1" vertex="1">
          <mxGeometry x="880" y="20" width="130" height="60" as="geometry" />
        </mxCell>
        <mxCell id="rNGPlnSFtUfxI-7FSF1a-99" value="2021" style="html=1;shape=mxgraph.infographic.flag;dx=30;dy=20;fillColor=#fad9d5;strokeColor=#ae4132;align=center;verticalAlign=top;fontSize=20;fontStyle=1;shadow=0;spacingTop=5;" parent="1" vertex="1">
          <mxGeometry x="1020" y="20" width="130" height="60" as="geometry" />
        </mxCell>
        <mxCell id="rNGPlnSFtUfxI-7FSF1a-100" value="2022" style="html=1;shape=mxgraph.infographic.flag;dx=30;dy=20;fillColor=#bac8d3;strokeColor=#23445d;align=center;verticalAlign=top;fontSize=20;fontStyle=1;shadow=0;spacingTop=5;" parent="1" vertex="1">
          <mxGeometry x="1160" y="20" width="130" height="60" as="geometry" />
        </mxCell>
        <mxCell id="rNGPlnSFtUfxI-7FSF1a-101" value="2023" style="html=1;shape=mxgraph.infographic.flag;dx=30;dy=20;fillColor=#b0e3e6;strokeColor=#0e8088;align=center;verticalAlign=top;fontSize=20;fontStyle=1;shadow=0;spacingTop=5;" parent="1" vertex="1">
          <mxGeometry x="1300" y="20" width="130" height="60" as="geometry" />
        </mxCell>
        <mxCell id="Eea4O15NX0q3AfGc0YIN-1" value="LLL/Solidity" style="shape=step;perimeter=stepPerimeter;whiteSpace=wrap;html=1;fixedSize=1;size=10;fillColor=#10739E;strokeColor=none;fontSize=25;fontColor=#FFFFFF;fontStyle=1;align=center;rounded=0;" vertex="1" parent="1">
          <mxGeometry x="40" y="120" width="850" height="60" as="geometry" />
        </mxCell>
        <mxCell id="Eea4O15NX0q3AfGc0YIN-2" value="LLL/Vyper" style="shape=step;perimeter=stepPerimeter;whiteSpace=wrap;html=1;fixedSize=1;size=10;fillColor=#F2931E;strokeColor=none;fontSize=25;fontColor=#FFFFFF;fontStyle=1;align=center;rounded=0;" vertex="1" parent="1">
          <mxGeometry x="440" y="240" width="760" height="60" as="geometry" />
        </mxCell>
        <mxCell id="Eea4O15NX0q3AfGc0YIN-3" value="Vyper IR" style="shape=step;perimeter=stepPerimeter;whiteSpace=wrap;html=1;fixedSize=1;size=10;fillColor=#F2931E;strokeColor=none;fontSize=25;fontColor=#FFFFFF;fontStyle=1;align=center;rounded=0;" vertex="1" parent="1">
          <mxGeometry x="1200" y="240" width="320" height="60" as="geometry" />
        </mxCell>
        <mxCell id="Eea4O15NX0q3AfGc0YIN-4" value="JULIA" style="shape=step;perimeter=stepPerimeter;whiteSpace=wrap;html=1;fixedSize=1;size=10;fillColor=#AE4132;strokeColor=none;fontSize=25;fontColor=#FFFFFF;fontStyle=1;align=center;rounded=0;" vertex="1" parent="1">
          <mxGeometry x="520" y="360" width="110" height="60" as="geometry" />
        </mxCell>
        <mxCell id="Eea4O15NX0q3AfGc0YIN-5" value="Yul+" style="shape=step;perimeter=stepPerimeter;whiteSpace=wrap;html=1;fixedSize=1;size=10;fillColor=#AE4132;strokeColor=none;fontSize=25;fontColor=#FFFFFF;fontStyle=1;align=center;rounded=0;" vertex="1" parent="1">
          <mxGeometry x="880" y="480" width="300" height="60" as="geometry" />
        </mxCell>
        <mxCell id="Eea4O15NX0q3AfGc0YIN-7" value="Sonatina" style="shape=step;perimeter=stepPerimeter;whiteSpace=wrap;html=1;fixedSize=1;size=10;fillColor=#10739E;strokeColor=none;fontSize=25;fontColor=#FFFFFF;fontStyle=1;align=center;rounded=0;" vertex="1" parent="1">
          <mxGeometry x="1110" y="840" width="410" height="60" as="geometry" />
        </mxCell>
        <mxCell id="Eea4O15NX0q3AfGc0YIN-8" value="Huff (Rust)" style="shape=step;perimeter=stepPerimeter;whiteSpace=wrap;html=1;fixedSize=1;size=10;fillColor=#12AAB5;strokeColor=none;fontSize=25;fontColor=#FFFFFF;fontStyle=1;align=center;rounded=0;" vertex="1" parent="1">
          <mxGeometry x="1250" y="720" width="270" height="60" as="geometry" />
        </mxCell>
      </root>
    </mxGraphModel>
  </diagram>
</mxfile>
